<svg xmlns="http://www.w3.org/2000/svg" viewBox="0 0 63.07 112.46"><defs><style>.cls-1{fill:#010101;stroke:#010101;}.cls-2{fill:#ed2224;}</style></defs><title>logo</title><g id="Layer_2" data-name="Layer 2"><g id="Layer_1-2" data-name="Layer 1"><g id="layer1"><path id="path2987-1" class="cls-1" d="M24.18,7.22C31.26,7,37.32,4.14,43.21.91L40,26.16c6.35,1,12.69-.6,19-3.16-.46,7.82,1.26,13.48,3.17,18.94-7.74-2.8-15.49-3-23.23.16-5.6,21,2.8,42,4.2,63-7.89,0-14.17,2.15-19,6.31V38.78C12.35,37.63,7.77,40.48.95,42.1c3.45-6.66,5-13,4.2-19.09,5.06,1.4,9.46,3,19,3.16,2.66-10,.06-12.71,0-18.94Z"/><path id="path5277-7" class="cls-2" d="M37.54,49.72S49.79,42.51,48,35.59,38.69,30.29,37.54,34c-1.16-3.68-8.7-5.3-10.48,1.62S37.54,49.72,37.54,49.72Z"/></g><path class="cls-2" d="M30.42,73.64a1.13,1.13,0,0,1-.4-.75A8.74,8.74,0,0,1,30.2,71q.1-1,.28-2.17T30.75,67a15.38,15.38,0,0,0,.52-2,6.78,6.78,0,0,0-1.88.6,10.31,10.31,0,0,1-3.36.66,2.76,2.76,0,0,1-2-1,1.44,1.44,0,0,1-.45-.61,2.94,2.94,0,0,1-.26-.9.8.8,0,0,1,.14-.66q.21-.52.43-1t.38-.92a1.75,1.75,0,0,0,.14-.47.4.4,0,0,1,.08-.26.43.43,0,0,0,.08-.29,11.92,11.92,0,0,1,.71-1.35q.57-1,1.3-2.18t1.39-2.17a8.71,8.71,0,0,1,1-1.29,4.65,4.65,0,0,1,.72-.33q.38-.14.53,0a2.42,2.42,0,0,1,.33.53,5.87,5.87,0,0,1,.28.65c.07.19.06.3,0,.31s-.21.11-.2.21-.11.33-.36.69-.54.73-.85,1.12-.68,1-1,1.5-.58.95-.86,1.41-.54.92-.79,1.38-.5.93-.74,1.41a14.11,14.11,0,0,0-.36,1.67.48.48,0,0,0,.17.47,3,3,0,0,0,1.12-.08,15.06,15.06,0,0,0,2.34-.71l1.52-.46a4.34,4.34,0,0,0,1-.4,1.73,1.73,0,0,0,.62-.19c.18-.1.27-.2.25-.3a1.83,1.83,0,0,1,.21-.67,8.05,8.05,0,0,0,.35-1q.28-.6.68-1.61A13.14,13.14,0,0,1,34.68,57q.85-2.22,1.06-2.87t.39-.67a1.36,1.36,0,0,1,.5.07,1,1,0,0,1,.53.37,1.29,1.29,0,0,1,.45.46q.11.23-.17.8a3.24,3.24,0,0,1-.15.79,8.16,8.16,0,0,1-.35.82q-.23.48-.66,1.4t-1,2.27q-.54,1.31-1,2.7t-.92,2.59q-.41,1.2-.6,1.91-.44,1.57-.65,2.44A4.79,4.79,0,0,0,32,71.43a1.48,1.48,0,0,0,.3.82A1.34,1.34,0,0,1,32,73.43a1.54,1.54,0,0,1-.88.63A.61.61,0,0,1,30.42,73.64Z"/><path class="cls-2" d="M24.56,78c0-.07,0-.14.08-.21a.87.87,0,0,1,.31-.17l.32-.16a2.56,2.56,0,0,1,.46-.17L27,77.08l1.68-.28q.88-.13,1.72-.21l1.51-.13,1.06-.08a1.2,1.2,0,0,0,.39-.05s-.11,0-.31,0l-.73,0h-.85l-.69,0-1.35,0L28,76.15l-1.16-.06-.6-.07-.8-.07a4.67,4.67,0,0,1-.7-.11q-.45-.1-.52-.26t.17-.33l.18-.09.28-.1a2.31,2.31,0,0,1,.42-.07l.87-.15,1.3-.19,1.38-.18,1.11-.13q1.29-.16,2.64-.27l2.73-.26.93,0,1-.06a1.66,1.66,0,0,1,.6,0c.11,0,.15.08.13.15a.4.4,0,0,1-.22.19,2.5,2.5,0,0,1-.59.23,4,4,0,0,1-1.07.12q-1,0-2.43.12t-3.44.34L29,75l-1.29.16-1,.14a2.43,2.43,0,0,0-.44.08s.07.09.28.13a4.44,4.44,0,0,0,.8.06q1.41.08,3,.14l3,.09,1.31,0,1.31,0,1.13.05.84,0a1.06,1.06,0,0,1,.38.06.34.34,0,0,1-.11.25,1.44,1.44,0,0,1-.5.25,1.53,1.53,0,0,1-.34.05l-.43,0-.59,0-1,.07-1.09.05-.88.07L31.45,77l-2.06.2q-1,.11-1.81.25l-.87.16a3.85,3.85,0,0,0-.49.13c-.1,0-.16.07-.18.14s0,.1.16.11l1,.11.87.07,1,0q1,0,2.11,0h4.32l1.75-.07q.65,0,1,0a1.44,1.44,0,0,1,.47.07.12.12,0,0,1,.1.1s0,.11-.13.17l-.24.1a2.22,2.22,0,0,1-.4.09l-1,0-1.57,0-1.64,0H32.49l-.75,0a2,2,0,0,0-.47,0h-.5l-1,0-1.24-.05-1.18-.07-.83-.07a9,9,0,0,1-1.08-.2,3.54,3.54,0,0,1-.64-.22Q24.57,78.09,24.56,78Z"/><path class="cls-2" d="M26.47,80.9a.18.18,0,0,1,.07-.18l.25-.2a4.19,4.19,0,0,1,.73-.35,3,3,0,0,1,.7-.17,2.92,2.92,0,0,0,.46-.07c.06,0,.1-.05.13,0h.11s.08,0,.22,0a3.77,3.77,0,0,1,.71-.06q.55,0,1.05,0l.55,0,.69.09a5.34,5.34,0,0,1,.57.12,3.73,3.73,0,0,1,.68.24,1.11,1.11,0,0,1,.36.27.63.63,0,0,1,.14.23s-.09.13-.28.24a1.23,1.23,0,0,1-.43.35,3.67,3.67,0,0,1-.8.25A11.91,11.91,0,0,1,31,81.9a10.39,10.39,0,0,1-2,0,7,7,0,0,1-1.13-.17,5.27,5.27,0,0,1-.76-.27,2,2,0,0,1-.46-.23A.66.66,0,0,1,26.47,80.9Zm2.25.38a10.38,10.38,0,0,0,1.07.12q.5,0,1.25,0a5,5,0,0,0,.55-.06l.62-.12c.19,0,.3-.08.32-.12a.19.19,0,0,0,0-.25.75.75,0,0,0-.44-.23,6.66,6.66,0,0,0-1.36-.2q-.8,0-1.81,0a3.8,3.8,0,0,0-1.15.15q-.42.15-.25.35A2.41,2.41,0,0,0,28.72,81.28Z"/><path class="cls-2" d="M28.06,86.65a.9.9,0,0,1,.18-.16,2,2,0,0,1,.52-.23A8.43,8.43,0,0,1,29.83,86l.94-.16q.34-.06.33-.12s-.12-.1-.35-.19a9.24,9.24,0,0,0-.9-.26q-.56-.14-1.24-.26l-.44-.08a.55.55,0,0,1-.27-.1s0-.11.1-.19l.16-.12a.71.71,0,0,1,.2-.09l.25,0L30,84.35H31l.43,0c.06,0,.08,0,.07,0a.55.55,0,0,0-.22-.16A.94.94,0,0,0,31,84s-.07,0-.2-.06a1.89,1.89,0,0,1-.37-.1,3.91,3.91,0,0,1-.66-.11l-.83-.18a4.43,4.43,0,0,0-.57-.11l-.59-.07q-.25,0-.26,0a.24.24,0,0,1,.11-.21,1.27,1.27,0,0,1,.44-.21,3.53,3.53,0,0,1,.94-.17l1.61-.14.45,0,.29,0h1.47l.58,0,.27,0a1.15,1.15,0,0,1,.35,0,.47.47,0,0,1,.22.07s.06.07,0,.12-.08.13-.19.19a1.6,1.6,0,0,1-.48.17,2.82,2.82,0,0,1-.43.06H31.57l-.79,0-.42,0s0,0,0,0l.28.08.36.1a7.25,7.25,0,0,1,.83.24,6.71,6.71,0,0,1,.7.29,1.93,1.93,0,0,1,.39.23.19.19,0,0,1-.09.21l-.41.26a1.11,1.11,0,0,1-.35.13l-.42.07-.4,0-.89,0,.68.18.38.1a2.22,2.22,0,0,1,.85.41c.13.13,0,.28-.35.45a1.27,1.27,0,0,1-.46.19l-.9.17-.61.13-.64.14-.34.09a.24.24,0,0,0-.11.11.71.71,0,0,0-.06.2c0,.08-.09.15-.23.19a.64.64,0,0,1-.44,0c-.13-.06-.2-.14-.21-.23A.47.47,0,0,1,28.06,86.65Z"/><path class="cls-2" d="M27.46,88.44q-.06-.35.56-.69a5.24,5.24,0,0,1,1.62-.51q.72-.11,1.56-.16t1.64,0a12.18,12.18,0,0,1,1.41.12,2.51,2.51,0,0,1,.89.27.73.73,0,0,1,.19.14.34.34,0,0,1,.09.18.32.32,0,0,1,0,.2.86.86,0,0,1-.12.19.94.94,0,0,1-.3.27,3.26,3.26,0,0,1-.59.24l-.53.12-.48,0a8.52,8.52,0,0,1-1.28,0,3,3,0,0,1-.95-.25.46.46,0,0,1-.18-.12.34.34,0,0,1-.08-.16.44.44,0,0,1,.09-.33,1.08,1.08,0,0,1,.41-.32l.15-.08h-.16l-1,.06c-.31,0-.59.06-.84.11l-.45.1a2.55,2.55,0,0,0-.37.13.28.28,0,0,0-.15.14.29.29,0,0,0,0,.17.68.68,0,0,0,0,.11.21.21,0,0,0,.09.1,1.13,1.13,0,0,0,.3.17l.33.12,0,0h0l.4.18s0,0,.11,0,.05.09,0,.17a.61.61,0,0,1-.34.16l-.32,0-.41-.07c-.13,0-.2-.06-.22-.09l-.08,0-.1,0h0c-.17,0-.26-.05-.26-.1v-.06a.68.68,0,0,1-.35-.15A.51.51,0,0,1,27.46,88.44ZM31.9,88q0,.14.25.21a2.87,2.87,0,0,0,.5.1,4.61,4.61,0,0,0,1.08,0,1.9,1.9,0,0,0,.7-.18.19.19,0,0,0,.06-.1s0-.07-.1-.13a.79.79,0,0,0-.33-.15q-.28-.08-.62-.15l-.57-.09-.44,0a.25.25,0,0,1,.09.11s0,.06,0,.07a1.8,1.8,0,0,0-.32.09.79.79,0,0,0-.22.11S31.89,88,31.9,88Z"/><path class="cls-2" d="M28.53,92.68c0-.05.05-.12.19-.2a3.17,3.17,0,0,1,.52-.24,3.58,3.58,0,0,1,.62-.17q.3-.05,1.12-.14l1.68-.15a2.71,2.71,0,0,0,.6-.07s0-.08-.26-.18l-.32-.15a2,2,0,0,0-.36-.09L32,91.22l-.37-.11-.6-.16-.77-.19-.6-.13-.15,0a.13.13,0,0,1-.08-.06.1.1,0,0,1,0-.09.55.55,0,0,1,.23-.21,1.3,1.3,0,0,1,.44-.16,6.3,6.3,0,0,1,.7-.06l1.21,0h1.77l.33,0,.34,0,.21,0h.38q.17,0,.11.1a.6.6,0,0,1-.26.19,1.84,1.84,0,0,1-.67.25,7.12,7.12,0,0,1-1,.1h-.7s.07.06.2.11l.44.19.45.14L34,91l.12.06s0,0,.07.07l.15.05a.19.19,0,0,1,.11.05.16.16,0,0,0,.12.08c.09,0,.12.08.1.15a.49.49,0,0,1-.17.23.75.75,0,0,1-.34.15.49.49,0,0,0-.17.07s-.15.1-.48.17a5.48,5.48,0,0,1-1,.13,7,7,0,0,1-.72.08l-.81.07-.89.07a5.35,5.35,0,0,0-.64.11,2.54,2.54,0,0,0-.41.13.75.75,0,0,1-.31.06C28.6,92.78,28.54,92.74,28.53,92.68Z"/><path class="cls-2" d="M28.2,94.5A4.44,4.44,0,0,1,29,94a3.59,3.59,0,0,1,.73-.23q.36-.08,1-.17l1.22-.17.91-.11a1.42,1.42,0,0,0,.44,0,3.56,3.56,0,0,1,.54,0q.44,0,1.13-.08,1.22-.06,2.06-.05t1.44,0l1.11.1q.89.18,1.36.3a2.94,2.94,0,0,1,.79.32,2.74,2.74,0,0,1,.43.23q.16.11.08.22a1.53,1.53,0,0,1-.79.83,9.33,9.33,0,0,1-2,.7q-.87.21-1.57.35t-1.4.21q-.7.07-1.54.07t-2-.07a19.85,19.85,0,0,1-2.5-.19,8.24,8.24,0,0,1-1.73-.42,1.35,1.35,0,0,1-.79-.58Q27.75,94.85,28.2,94.5Zm.67.41a.77.77,0,0,0,.34.3,3.21,3.21,0,0,0,.71.23q.46.11,1.16.22l1.07.16q.43.06.87.07t1,0l1.59-.08,1-.08.75-.09.81-.14,1.17-.22a6.67,6.67,0,0,0,.7-.18,2.92,2.92,0,0,0,.53-.21.59.59,0,0,0,.27-.28q.06-.16-.17-.3a1.77,1.77,0,0,0-.49-.17L39.36,94l-1-.15-.89-.09a2.62,2.62,0,0,0-.52,0,1.2,1.2,0,0,1-.31,0,6.5,6.5,0,0,0-1,0q-.74,0-1.66.06t-1.82.14q-.9.08-1.56.19l-.74.12a1.17,1.17,0,0,0-.3.09l-.39.18a.56.56,0,0,0-.27.22A.2.2,0,0,0,28.87,94.91Z"/><path class="cls-2" d="M30.14,98s0-.06.09-.11l.17-.13a1.29,1.29,0,0,1,.31-.12l.71-.14a10.34,10.34,0,0,1,1.4-.15q.76,0,2.16,0h1.44l.25,0,.17,0v.08s0,.1-.17.16a2.37,2.37,0,0,1-.39.17l-.54.07a5,5,0,0,1-.87,0h-.76q-.53,0-.92,0h-.86l-.44,0,1.47.29a11.52,11.52,0,0,1,1.44.36q.44.16.4.31c0,.1-.19.21-.5.33l-.37.15a3.6,3.6,0,0,1-.44.12l-.84.13-1.23.22A1.35,1.35,0,0,0,32,100l.18.12a1.06,1.06,0,0,1,.18.14.53.53,0,0,1,.13.22,2.94,2.94,0,0,1-.56,0,4.08,4.08,0,0,1-.58-.06,1.76,1.76,0,0,1-.46-.14c-.12-.06-.19-.12-.2-.2s.06-.16.22-.28a2.15,2.15,0,0,1,.54-.29,3.68,3.68,0,0,1,.47-.12l1-.18.74-.13Q34,99,33.82,99l-.25-.08-.64-.14-.74-.14a14,14,0,0,1-1.52-.35Q30.16,98.1,30.14,98Z"/><path class="cls-2" d="M29.88,101.6c-.08-.09,0-.18.12-.27a2.83,2.83,0,0,1,.78-.25,11.15,11.15,0,0,1,1.28-.18l.48,0,.37,0,.6,0,.82,0,.77,0h.42s.05,0,.15,0l.28,0,.36,0a1.31,1.31,0,0,1,.29,0l.23,0,.21,0h1.18l1.3,0,1.41,0,1.17-.05.58,0a.7.7,0,0,1,.24,0c.06,0,.09,0,.1.08a.16.16,0,0,1,.09,0,.15.15,0,0,1,0,.06l-.3.18a.93.93,0,0,1-.31.13l-.42.09-.46.06H35.93l-.16,0H35.6s-.08,0-.23,0a10.7,10.7,0,0,1-1.08.06l-2.05.13a13.43,13.43,0,0,0-1.49.16l-.63.1A.41.41,0,0,1,29.88,101.6Z"/><path class="cls-2" d="M25.26,103.44q-.11-.16-.06-.23l.17-.21.21-.18a.32.32,0,0,1,.15-.08h.13a.27.27,0,0,1,.13,0,.16.16,0,0,1,.07.11.22.22,0,0,0,0,.2c0,.09.05.14.11.15a.82.82,0,0,1,.33.23,3,3,0,0,0,.83.3,8,8,0,0,0,1.26.15l.67,0a6,6,0,0,0,.75,0l1.1,0,1.37-.09q.68-.06,1-.11,1.12-.15,2.09-.22t2.15-.19H38a.1.1,0,0,1,.07.09.24.24,0,0,1,0,.14s-.09.08-.23.14a3.74,3.74,0,0,1-.87.22,4.06,4.06,0,0,1-.91,0,5.59,5.59,0,0,0-.89,0l-1.48.15-1,.1-1.32.14-.62,0-.66,0H29a11.26,11.26,0,0,1-2.59-.26Q25.43,103.9,25.26,103.44Zm5.88-.43c0-.06.06-.13.21-.22a3,3,0,0,1,.36-.19l.36-.15a2.44,2.44,0,0,1,.43-.15,4.08,4.08,0,0,1,.64-.1l.76,0L35,102.1l1.17,0,1,0a6.6,6.6,0,0,1,.67,0,.38.38,0,0,1,.22.07s0,.08,0,.13a.66.66,0,0,1-.25.16,1.32,1.32,0,0,1-.47.16,7.33,7.33,0,0,1-.8,0h-.82l-.27,0-.44,0c-.14,0-.2,0-.21,0a2.54,2.54,0,0,0-.46,0l-.83.08-.78.1c-.22,0-.33.06-.32.08s.22.31.57.43a7.25,7.25,0,0,0,1.49.29l-1.39.39-.33-.16a2.18,2.18,0,0,0-.38-.11,1,1,0,0,1-.24-.07l-.28-.13c-.08,0-.13-.07-.13-.09s-.05,0-.11,0-.08,0-.17-.08a1.51,1.51,0,0,1-.23-.18A.37.37,0,0,1,31.14,103Z"/></g></g></svg>